<svg width="30" height="30" viewBox="0 0 30 30" fill="none" xmlns="http://www.w3.org/2000/svg">
    <path d="M18 19.5C18.425 19.5 18.794 19.344 19.107 19.032C19.42 18.72 19.576 18.351 19.575 17.925C19.574 17.499 19.418 17.1305 19.107 16.8195C18.796 16.5085 18.427 16.352 18 16.35C17.573 16.348 17.2045 16.5045 16.8945 16.8195C16.5845 17.1345 16.428 17.503 16.425 17.925C16.422 18.347 16.5785 18.716 16.8945 19.032C17.2105 19.348 17.579 19.504 18 19.5ZM16.875 14.7H19.125C19.125 13.975 19.2 13.444 19.35 13.107C19.5 12.77 19.85 12.326 20.4 11.775C21.15 11.025 21.65 10.419 21.9 9.957C22.15 9.495 22.275 8.951 22.275 8.325C22.275 7.2 21.881 6.2815 21.093 5.5695C20.305 4.8575 19.274 4.501 18 4.5C16.975 4.5 16.0815 4.7875 15.3195 5.3625C14.5575 5.9375 14.026 6.7 13.725 7.65L15.75 8.475C15.975 7.85 16.2815 7.3815 16.6695 7.0695C17.0575 6.7575 17.501 6.601 18 6.6C18.6 6.6 19.0875 6.769 19.4625 7.107C19.8375 7.445 20.025 7.901 20.025 8.475C20.025 8.825 19.925 9.1565 19.725 9.4695C19.525 9.7825 19.175 10.176 18.675 10.65C17.85 11.375 17.344 11.944 17.157 12.357C16.97 12.77 16.876 13.551 16.875 14.7ZM6 24V0H30V24H6ZM0 30V6H3V27H24V30H0Z" fill="#1B5091"/>
</svg>
